<?xml version="1.0" encoding="utf-8"?>
<!-- Generator: Adobe Illustrator 21.1.0, SVG Export Plug-In . SVG Version: 6.00 Build 0)  -->
<svg version="1.1" xmlns="http://www.w3.org/2000/svg" xmlns:xlink="http://www.w3.org/1999/xlink" x="0px" y="0px"
	 viewBox="0 0 588 427" style="enable-background:new 0 0 588 427;" xml:space="preserve">
<style type="text/css">
	.st0{fill:#B6DDFF;}
	.st1{fill:none;stroke:#009245;stroke-width:5.6693;stroke-miterlimit:10;}
	.st2{fill:#009245;}
	.st3{fill:none;stroke:#808080;stroke-width:5.6693;stroke-miterlimit:10;}
	.st4{fill:none;stroke:#000000;stroke-width:5.6693;stroke-miterlimit:10;}
	.st5{fill:none;stroke:#FF0000;stroke-width:5.6693;stroke-miterlimit:10;}
</style>
<g id="bg">
	<path class="st0" d="M24,216c0,0,90-54,125-37s53,57,87,57s75-82,161-45s164,15,164,15v160H24V216z"/>
	<line class="st1" x1="561" y1="366" x2="24" y2="366"/>
	<g>
		<path class="st2" d="M28.2,375.3c1.5-0.3,3.9-0.6,6.3-0.6c3.5,0,5.7,0.6,7.3,1.9c1.4,1,2.2,2.6,2.2,4.7c0,2.6-1.7,4.8-4.5,5.9v0.1
			c2.5,0.6,5.5,2.7,5.5,6.7c0,2.3-0.9,4-2.3,5.4c-1.9,1.7-4.9,2.5-9.2,2.5c-2.4,0-4.2-0.2-5.4-0.3V375.3z M31.6,386.3h3.1
			c3.7,0,5.8-1.9,5.8-4.5c0-3.1-2.4-4.4-5.9-4.4c-1.6,0-2.5,0.1-3.1,0.2V386.3z M31.6,399.1c0.7,0.1,1.7,0.2,2.9,0.2
			c3.6,0,6.9-1.3,6.9-5.2c0-3.7-3.1-5.2-6.9-5.2h-2.9V399.1z"/>
		<path class="st2" d="M60.2,401.7l-0.3-2.4h-0.1c-1.1,1.5-3.1,2.9-5.9,2.9c-3.9,0-5.9-2.7-5.9-5.5c0-4.6,4.1-7.2,11.5-7.1v-0.4
			c0-1.6-0.4-4.4-4.4-4.4c-1.8,0-3.7,0.6-5,1.4l-0.8-2.3c1.6-1,3.9-1.7,6.3-1.7c5.9,0,7.3,4,7.3,7.9v7.2c0,1.7,0.1,3.3,0.3,4.6H60.2
			z M59.7,391.9c-3.8-0.1-8.1,0.6-8.1,4.3c0,2.3,1.5,3.3,3.3,3.3c2.5,0,4.1-1.6,4.6-3.2c0.1-0.4,0.2-0.8,0.2-1.1V391.9z"/>
		<path class="st2" d="M82.4,401c-0.9,0.5-2.9,1.1-5.5,1.1c-5.8,0-9.6-3.9-9.6-9.8c0-5.9,4-10.2,10.3-10.2c2.1,0,3.9,0.5,4.8,1
			l-0.8,2.7c-0.8-0.5-2.1-0.9-4-0.9c-4.4,0-6.8,3.3-6.8,7.3c0,4.4,2.9,7.2,6.7,7.2c2,0,3.3-0.5,4.3-1L82.4,401z"/>
		<path class="st2" d="M89.9,391.3L89.9,391.3c0.6-0.7,1.2-1.5,1.8-2.2l5.6-6.6h4.2l-7.4,7.9l8.5,11.3h-4.2l-6.6-9.2l-1.8,2v7.2
			h-3.5v-28.2h3.5V391.3z"/>
		<path class="st2" d="M121.7,382.5c-0.1,1.4-0.2,2.9-0.2,5.3v11.2c0,4.4-0.9,7.1-2.7,8.8c-1.9,1.7-4.6,2.3-7,2.3
			c-2.3,0-4.8-0.6-6.4-1.6l0.9-2.7c1.3,0.8,3.3,1.5,5.6,1.5c3.6,0,6.2-1.9,6.2-6.7v-2.1H118c-1.1,1.8-3.1,3.2-6.1,3.2
			c-4.8,0-8.2-4-8.2-9.4c0-6.5,4.2-10.2,8.7-10.2c3.3,0,5.2,1.7,6,3.3h0.1l0.2-2.9H121.7z M118,390.1c0-0.6,0-1.1-0.2-1.6
			c-0.6-2-2.3-3.7-4.9-3.7c-3.3,0-5.7,2.8-5.7,7.3c0,3.8,1.9,6.9,5.7,6.9c2.1,0,4.1-1.3,4.8-3.6c0.2-0.6,0.3-1.3,0.3-1.9V390.1z"/>
		<path class="st2" d="M127,388.5c0-2.3,0-4.2-0.2-6h3.1l0.1,3.8h0.2c0.9-2.6,3-4.2,5.3-4.2c0.4,0,0.7,0,1,0.1v3.3
			c-0.4-0.1-0.7-0.1-1.2-0.1c-2.5,0-4.2,1.9-4.7,4.5c-0.1,0.5-0.2,1-0.2,1.6v10.2H127V388.5z"/>
		<path class="st2" d="M157,391.9c0,7.1-4.9,10.2-9.6,10.2c-5.2,0-9.2-3.8-9.2-9.9c0-6.4,4.2-10.2,9.5-10.2
			C153.3,382.1,157,386.1,157,391.9z M141.8,392.1c0,4.2,2.4,7.4,5.8,7.4c3.3,0,5.8-3.1,5.8-7.5c0-3.3-1.6-7.4-5.8-7.4
			C143.6,384.7,141.8,388.5,141.8,392.1z"/>
		<path class="st2" d="M177.5,396.5c0,2,0,3.7,0.2,5.2h-3.1l-0.2-3.1h-0.1c-0.9,1.5-2.9,3.6-6.4,3.6c-3,0-6.6-1.7-6.6-8.4v-11.2h3.5
			v10.6c0,3.7,1.1,6.1,4.3,6.1c2.3,0,4-1.6,4.6-3.2c0.2-0.5,0.3-1.2,0.3-1.8v-11.8h3.5V396.5z"/>
		<path class="st2" d="M183.3,387.7c0-2,0-3.6-0.2-5.2h3.1l0.2,3.2h0.1c1-1.8,3.2-3.6,6.4-3.6c2.7,0,6.8,1.6,6.8,8.2v11.5h-3.5
			v-11.1c0-3.1-1.2-5.7-4.4-5.7c-2.3,0-4.1,1.6-4.7,3.6c-0.2,0.4-0.2,1-0.2,1.6v11.5h-3.5V387.7z"/>
		<path class="st2" d="M221.9,373.5v23.2c0,1.7,0,3.7,0.2,5h-3.1l-0.2-3.3h-0.1c-1.1,2.1-3.4,3.8-6.5,3.8c-4.6,0-8.2-3.9-8.2-9.8
			c0-6.4,3.9-10.3,8.6-10.3c2.9,0,4.9,1.4,5.8,2.9h0.1v-11.5H221.9z M218.4,390.3c0-0.4,0-1-0.2-1.5c-0.5-2.2-2.4-4-5-4
			c-3.6,0-5.8,3.2-5.8,7.4c0,3.9,1.9,7.1,5.7,7.1c2.3,0,4.5-1.5,5.1-4.2c0.1-0.5,0.2-1,0.2-1.5V390.3z"/>
		<path class="st2" d="M240.3,377v5.5h5v2.7h-5v10.4c0,2.4,0.7,3.7,2.6,3.7c0.9,0,1.6-0.1,2-0.2l0.2,2.6c-0.7,0.3-1.7,0.5-3.1,0.5
			c-1.6,0-2.9-0.5-3.8-1.5c-1-1-1.3-2.7-1.3-5v-10.5h-3v-2.7h3v-4.6L240.3,377z"/>
		<path class="st2" d="M250.9,392.7c0.1,4.7,3.1,6.7,6.6,6.7c2.5,0,4-0.4,5.3-1l0.6,2.5c-1.2,0.6-3.3,1.2-6.4,1.2
			c-5.9,0-9.4-3.9-9.4-9.7c0-5.8,3.4-10.4,9-10.4c6.3,0,7.9,5.5,7.9,9c0,0.7-0.1,1.3-0.1,1.6H250.9z M261.2,390.2
			c0-2.2-0.9-5.7-4.8-5.7c-3.5,0-5.1,3.3-5.4,5.7H261.2z"/>
		<path class="st2" d="M270.4,382.5l2.7,4.1c0.7,1.1,1.3,2.1,1.9,3.1h0.1c0.6-1.2,1.3-2.1,1.9-3.2l2.7-4.1h3.8l-6.5,9.3l6.7,9.9h-4
			l-2.8-4.3c-0.8-1.1-1.4-2.2-2.1-3.3h-0.1c-0.6,1.2-1.3,2.2-2,3.3l-2.8,4.3h-3.9l6.8-9.8l-6.5-9.4H270.4z"/>
		<path class="st2" d="M291.9,377v5.5h5v2.7h-5v10.4c0,2.4,0.7,3.7,2.6,3.7c0.9,0,1.6-0.1,2-0.2l0.2,2.6c-0.7,0.3-1.7,0.5-3.1,0.5
			c-1.6,0-2.9-0.5-3.8-1.5c-1-1-1.3-2.7-1.3-5v-10.5h-3v-2.7h3v-4.6L291.9,377z"/>
		<path class="st2" d="M316.9,396.5c0,2,0,3.7,0.2,5.2h-3.1l-0.2-3.1h-0.1c-0.9,1.5-2.9,3.6-6.3,3.6c-3,0-6.6-1.7-6.6-8.4v-11.2h3.5
			v10.6c0,3.7,1.1,6.1,4.3,6.1c2.3,0,4-1.6,4.6-3.2c0.2-0.5,0.3-1.2,0.3-1.8v-11.8h3.5V396.5z"/>
		<path class="st2" d="M322.7,388.5c0-2.3,0-4.2-0.2-6h3.1l0.1,3.8h0.2c0.9-2.6,3-4.2,5.3-4.2c0.4,0,0.7,0,1,0.1v3.3
			c-0.4-0.1-0.7-0.1-1.2-0.1c-2.5,0-4.2,1.9-4.7,4.5c-0.1,0.5-0.2,1-0.2,1.6v10.2h-3.5V388.5z"/>
		<path class="st2" d="M337.2,392.7c0.1,4.7,3.1,6.7,6.6,6.7c2.5,0,4-0.4,5.3-1l0.6,2.5c-1.2,0.6-3.3,1.2-6.4,1.2
			c-5.9,0-9.4-3.9-9.4-9.7c0-5.8,3.4-10.4,9-10.4c6.3,0,7.9,5.5,7.9,9c0,0.7-0.1,1.3-0.1,1.6H337.2z M347.4,390.2
			c0-2.2-0.9-5.7-4.8-5.7c-3.5,0-5.1,3.3-5.4,5.7H347.4z"/>
	</g>
	<g>
		<path d="M510.5,115.2l-2.8,8.4h-3.6l9.1-26.8h4.2l9.1,26.8h-3.7l-2.9-8.4H510.5z M519.2,112.5l-2.6-7.7c-0.6-1.7-1-3.3-1.4-4.9
			h-0.1c-0.4,1.6-0.8,3.2-1.3,4.8l-2.6,7.7H519.2z"/>
		<path d="M534.1,99c0,1.2-0.8,2.1-2.2,2.1c-1.2,0-2.1-1-2.1-2.1c0-1.2,0.9-2.2,2.2-2.2C533.2,96.8,534.1,97.8,534.1,99z
			 M530.2,123.6v-19.2h3.5v19.2H530.2z"/>
		<path d="M539.5,110.4c0-2.3,0-4.2-0.2-6h3.1l0.1,3.8h0.2c0.9-2.6,3-4.2,5.3-4.2c0.4,0,0.7,0,1,0.1v3.3c-0.4-0.1-0.7-0.1-1.2-0.1
			c-2.5,0-4.2,1.9-4.7,4.5c-0.1,0.5-0.2,1-0.2,1.6v10.2h-3.5V110.4z"/>
	</g>
	<g>
		<path d="M458.5,281.6l-6.8-26.8h3.7l3.2,13.5c0.8,3.3,1.5,6.7,2,9.2h0.1c0.4-2.7,1.3-5.8,2.2-9.3l3.6-13.5h3.6l3.3,13.6
			c0.8,3.2,1.5,6.4,1.9,9.2h0.1c0.6-2.9,1.3-5.9,2.1-9.2l3.5-13.5h3.5l-7.6,26.8h-3.6l-3.4-13.9c-0.8-3.4-1.4-6-1.7-8.7H468
			c-0.5,2.7-1.1,5.3-2.1,8.7l-3.8,13.9H458.5z"/>
		<path d="M496.9,281.6l-0.3-2.4h-0.1c-1.1,1.5-3.1,2.9-5.9,2.9c-3.9,0-5.9-2.7-5.9-5.5c0-4.6,4.1-7.2,11.5-7.1V269
			c0-1.6-0.4-4.4-4.4-4.4c-1.8,0-3.7,0.6-5,1.4l-0.8-2.3c1.6-1,3.9-1.7,6.3-1.7c5.9,0,7.3,4,7.3,7.9v7.2c0,1.7,0.1,3.3,0.3,4.6
			H496.9z M496.4,271.8c-3.8-0.1-8.1,0.6-8.1,4.3c0,2.3,1.5,3.3,3.3,3.3c2.5,0,4.1-1.6,4.6-3.2c0.1-0.4,0.2-0.8,0.2-1.1V271.8z"/>
		<path d="M509.5,256.9v5.5h5v2.7h-5v10.4c0,2.4,0.7,3.7,2.6,3.7c0.9,0,1.6-0.1,2-0.2l0.2,2.6c-0.7,0.3-1.7,0.5-3.1,0.5
			c-1.6,0-2.9-0.5-3.8-1.5c-1-1-1.3-2.7-1.3-5v-10.5h-3v-2.7h3v-4.6L509.5,256.9z"/>
		<path d="M520.1,272.7c0.1,4.7,3.1,6.7,6.6,6.7c2.5,0,4-0.4,5.3-1l0.6,2.5c-1.2,0.6-3.3,1.2-6.4,1.2c-5.9,0-9.4-3.9-9.4-9.7
			s3.4-10.4,9-10.4c6.3,0,7.9,5.5,7.9,9c0,0.7-0.1,1.3-0.1,1.6H520.1z M530.3,270.2c0-2.2-0.9-5.7-4.8-5.7c-3.5,0-5.1,3.3-5.4,5.7
			H530.3z"/>
		<path d="M538,268.4c0-2.3,0-4.2-0.2-6h3.1l0.1,3.8h0.2c0.9-2.6,3-4.2,5.3-4.2c0.4,0,0.7,0,1,0.1v3.3c-0.4-0.1-0.7-0.1-1.2-0.1
			c-2.5,0-4.2,1.9-4.7,4.5c-0.1,0.5-0.2,1-0.2,1.6v10.2H538V268.4z"/>
	</g>
	<g>
		<path d="M78.1,123.6V96.9h3.8l8.6,13.5c2,3.1,3.5,6,4.8,8.7l0.1,0c-0.3-3.6-0.4-6.8-0.4-11V96.9h3.3v26.8h-3.5L86.2,110
			c-1.9-3-3.7-6-5-8.9l-0.1,0c0.2,3.4,0.3,6.6,0.3,11v11.4H78.1z"/>
		<path d="M121.5,113.9c0,7.1-4.9,10.2-9.6,10.2c-5.2,0-9.2-3.8-9.2-9.9c0-6.4,4.2-10.2,9.5-10.2C117.8,104,121.5,108,121.5,113.9z
			 M106.3,114.1c0,4.2,2.4,7.4,5.8,7.4c3.3,0,5.8-3.1,5.8-7.5c0-3.3-1.6-7.4-5.8-7.4C108.1,106.6,106.3,110.4,106.3,114.1z"/>
		<path d="M125.9,110.4c0-2.3,0-4.2-0.2-6h3.1l0.1,3.8h0.2c0.9-2.6,3-4.2,5.3-4.2c0.4,0,0.7,0,1,0.1v3.3c-0.4-0.1-0.7-0.1-1.2-0.1
			c-2.5,0-4.2,1.9-4.7,4.5c-0.1,0.5-0.2,1-0.2,1.6v10.2h-3.5V110.4z"/>
		<path d="M139.1,109.6c0-2,0-3.6-0.2-5.2h3.1l0.2,3.1h0.1c1.1-1.8,2.9-3.5,6-3.5c2.6,0,4.6,1.6,5.4,3.8h0.1
			c0.6-1.1,1.3-1.9,2.1-2.5c1.2-0.9,2.4-1.3,4.2-1.3c2.5,0,6.3,1.7,6.3,8.3v11.3h-3.4v-10.9c0-3.7-1.3-5.9-4.2-5.9
			c-2,0-3.5,1.5-4.1,3.2c-0.2,0.5-0.3,1.1-0.3,1.7v11.9h-3.4v-11.5c0-3.1-1.3-5.3-4-5.3c-2.2,0-3.8,1.7-4.3,3.5
			c-0.2,0.5-0.3,1.1-0.3,1.7v11.6h-3.4V109.6z"/>
		<path d="M182.8,123.6l-0.3-2.4h-0.1c-1.1,1.5-3.1,2.9-5.9,2.9c-3.9,0-5.9-2.7-5.9-5.5c0-4.6,4.1-7.2,11.5-7.1V111
			c0-1.6-0.4-4.4-4.4-4.4c-1.8,0-3.7,0.6-5,1.4l-0.8-2.3c1.6-1,3.9-1.7,6.3-1.7c5.9,0,7.3,4,7.3,7.9v7.2c0,1.7,0.1,3.3,0.3,4.6
			H182.8z M182.3,113.8c-3.8-0.1-8.1,0.6-8.1,4.3c0,2.3,1.5,3.3,3.3,3.3c2.5,0,4.1-1.6,4.6-3.2c0.1-0.4,0.2-0.8,0.2-1.1V113.8z"/>
		<path d="M191.3,95.4h3.5v28.2h-3.5V95.4z"/>
	</g>
</g>
<g id="Layer_1">
	<path class="st3" d="M220,111c0-14.9,43-37,69-27"/>
	<path class="st3" d="M377,323c0,7.2-11,22-26,13"/>
	<line class="st4" x1="203.2" y1="267.7" x2="374.1" y2="142.2"/>
	<line class="st4" x1="288.4" y1="204" x2="163.1" y2="34.1"/>
	<line class="st4" x1="405" y1="363" x2="288.8" y2="205.5"/>
	<line class="st4" x1="163" y1="33.7" x2="161.4" y2="66.2"/>
	<line class="st4" x1="195" y1="44.8" x2="163" y2="33.7"/>
	<line class="st5" x1="289" y1="205" x2="289" y2="26"/>
	<line class="st5" x1="367.2" y1="365.9" x2="288.8" y2="205.1"/>
	<line class="st3" x1="226" y1="205" x2="72" y2="205"/>
	<line class="st3" x1="149" y1="205" x2="149" y2="366"/>
	<g>
		<path d="M120,273.5v11.2h12.9v-11.2h3.5v26.8h-3.5v-12.5H120v12.5h-3.5v-26.8H120z"/>
	</g>
	<g>
		<path d="M255.4,122.9c0-8.1,3.3-14.3,9.3-14.3c6.1,0,8.9,5.8,8.9,14.3c0,8.9-2.9,14.8-9,14.8C258.9,137.6,255.4,132.7,255.4,122.9
			z M270.2,121.4c0-5.6-1.8-10.2-5.7-10.2c-3.5,0-5.6,4.8-5.6,10.2H270.2z M258.9,124c0,7.1,2.4,11.1,5.8,11.1
			c3.7,0,5.5-4.6,5.5-11.1H258.9z"/>
		<path d="M280.6,137.3L280.6,137.3l-2.7,1.4l-0.4-1.5l3.3-1.8h1.7v15h-2V137.3z"/>
	</g>
	<g>
		<path d="M301.4,298.9c0-8.1,3.3-14.3,9.3-14.3c6.1,0,8.9,5.8,8.9,14.3c0,8.9-2.9,14.8-9,14.8C304.9,313.6,301.4,308.7,301.4,298.9
			z M316.2,297.4c0-5.6-1.8-10.2-5.7-10.2c-3.5,0-5.6,4.8-5.6,10.2H316.2z M304.9,300c0,7.1,2.4,11.1,5.8,11.1
			c3.7,0,5.5-4.6,5.5-11.1H304.9z"/>
		<path d="M322.1,326.4v-1.2l1.6-1.5c3.8-3.7,5.6-5.6,5.6-7.9c0-1.5-0.7-2.9-3-2.9c-1.4,0-2.5,0.7-3.2,1.3l-0.6-1.4
			c1-0.9,2.5-1.5,4.3-1.5c3.2,0,4.6,2.2,4.6,4.4c0,2.8-2,5-5.2,8.1l-1.2,1.1v0h6.8v1.7H322.1z"/>
	</g>
	<g>
	</g>
	<g>
	</g>
	<g>
	</g>
	<g>
	</g>
	<g>
	</g>
	<g>
	</g>
	<g>
	</g>
	<g>
	</g>
	<g>
	</g>
	<g>
	</g>
	<g>
	</g>
	<g>
	</g>
	<g>
	</g>
	<g>
	</g>
	<g>
	</g>
</g>
</svg>
